<svg width="112" height="124" viewBox="0 0 112 124" fill="none" xmlns="http://www.w3.org/2000/svg">
<g filter="url(#filter0_bdd_101_597)">
<path fill-rule="evenodd" clip-rule="evenodd" d="M33.3312 39.8667V29.4667H43.7312V39.8667H33.3312ZM24.6646 27.7334C24.6646 23.9042 27.7687 20.8 31.5979 20.8H45.4646C49.2937 20.8 52.3979 23.9042 52.3979 27.7334V41.6C52.3979 45.4292 49.2937 48.5334 45.4646 48.5334H31.5979C27.7687 48.5334 24.6646 45.4292 24.6646 41.6V27.7334ZM33.3312 74.5334V64.1334H43.7312V74.5334H33.3312ZM24.6646 62.4C24.6646 58.5709 27.7687 55.4667 31.5979 55.4667H45.4646C49.2937 55.4667 52.3979 58.5709 52.3979 62.4V76.2667C52.3979 80.0959 49.2937 83.2 45.4646 83.2H31.5979C27.7687 83.2 24.6646 80.0959 24.6646 76.2667V62.4ZM68.2687 29.4667V39.8667H78.6687V29.4667H68.2687ZM66.5354 20.8C62.7062 20.8 59.6021 23.9042 59.6021 27.7334V41.6C59.6021 45.4292 62.7062 48.5334 66.5354 48.5334H80.4021C84.2312 48.5334 87.3354 45.4292 87.3354 41.6V27.7334C87.3354 23.9042 84.2312 20.8 80.4021 20.8H66.5354ZM73.4687 57.2C71.5541 57.2 70.0021 58.7521 70.0021 60.6667V65.8241H64.8021C62.8875 65.8241 61.3354 67.3762 61.3354 69.2908C61.3354 71.2054 62.8875 72.7575 64.8021 72.7575H70.0021V78C70.0021 79.9146 71.5541 81.4667 73.4687 81.4667C75.3833 81.4667 76.9354 79.9146 76.9354 78V72.7575H82.1354C84.05 72.7575 85.6021 71.2054 85.6021 69.2908C85.6021 67.3762 84.05 65.8241 82.1354 65.8241H76.9354V60.6667C76.9354 58.7521 75.3833 57.2 73.4687 57.2Z" fill="url(#paint0_radial_101_597)"/>
</g>
<defs>
<filter id="filter0_bdd_101_597" x="0.664551" y="12.8" width="110.671" height="110.4" filterUnits="userSpaceOnUse" color-interpolation-filters="sRGB">
<feFlood flood-opacity="0" result="BackgroundImageFix"/>
<feGaussianBlur in="BackgroundImage" stdDeviation="4"/>
<feComposite in2="SourceAlpha" operator="in" result="effect1_backgroundBlur_101_597"/>
<feColorMatrix in="SourceAlpha" type="matrix" values="0 0 0 0 0 0 0 0 0 0 0 0 0 0 0 0 0 0 127 0" result="hardAlpha"/>
<feOffset dy="16"/>
<feGaussianBlur stdDeviation="12"/>
<feComposite in2="hardAlpha" operator="out"/>
<feColorMatrix type="matrix" values="0 0 0 0 0.123854 0 0 0 0 0.24795 0 0 0 0 0.3625 0 0 0 0.25 0"/>
<feBlend mode="normal" in2="effect1_backgroundBlur_101_597" result="effect2_dropShadow_101_597"/>
<feColorMatrix in="SourceAlpha" type="matrix" values="0 0 0 0 0 0 0 0 0 0 0 0 0 0 0 0 0 0 127 0" result="hardAlpha"/>
<feOffset dy="16"/>
<feGaussianBlur stdDeviation="4"/>
<feComposite in2="hardAlpha" operator="out"/>
<feColorMatrix type="matrix" values="0 0 0 0 0.101961 0 0 0 0 0.184314 0 0 0 0 0.262745 0 0 0 0.03 0"/>
<feBlend mode="normal" in2="effect2_dropShadow_101_597" result="effect3_dropShadow_101_597"/>
<feBlend mode="normal" in="SourceGraphic" in2="effect3_dropShadow_101_597" result="shape"/>
</filter>
<radialGradient id="paint0_radial_101_597" cx="0" cy="0" r="1" gradientUnits="userSpaceOnUse" gradientTransform="translate(56 83.2001) rotate(-90) scale(62.4 135.635)">
<stop stop-color="#5200FF"/>
<stop offset="1" stop-color="#180660"/>
</radialGradient>
</defs>
</svg>
