<svg width="120" height="120" viewBox="0 0 120 120" fill="none" xmlns="http://www.w3.org/2000/svg">
<g clip-path="url(#clip0_101_407)">
<g filter="url(#filter0_bdd_101_407)">
<path fill-rule="evenodd" clip-rule="evenodd" d="M100.037 50.0794C100.037 52.8409 97.7984 55.0794 95.0369 55.0794H94.9269C94.8809 55.0799 94.8354 55.0799 94.7899 55.0794H45.0371C42.2757 55.0794 40.0371 52.8409 40.0371 50.0794C40.0371 47.318 42.2757 45.0794 45.0371 45.0794H82.7869L77.1804 39.4733C75.2279 37.5206 75.2279 34.3548 77.1804 32.4022C79.1334 30.4496 82.2989 30.4496 84.2519 32.4022L97.6899 45.8403C99.0999 46.7244 100.037 48.2924 100.037 50.0794ZM19.9629 69.9204C19.9629 67.159 22.2015 64.9204 24.9629 64.9204H25.0733C25.1189 64.9199 25.1645 64.9199 25.2101 64.9204H74.9631C77.7241 64.9204 79.9631 67.159 79.9631 69.9204C79.9631 72.6819 77.7241 74.9204 74.9631 74.9204H37.2133L42.8194 80.5265C44.772 82.479 44.772 85.645 42.8194 87.5975C40.8668 89.5504 37.7009 89.5504 35.7483 87.5975L22.3102 74.1594C20.9003 73.2754 19.9629 71.7075 19.9629 69.9204Z" fill="url(#paint0_radial_101_407)"/>
</g>
</g>
<defs>
<filter id="filter0_bdd_101_407" x="-4.03711" y="22.9377" width="128.074" height="106.125" filterUnits="userSpaceOnUse" color-interpolation-filters="sRGB">
<feFlood flood-opacity="0" result="BackgroundImageFix"/>
<feGaussianBlur in="BackgroundImage" stdDeviation="4"/>
<feComposite in2="SourceAlpha" operator="in" result="effect1_backgroundBlur_101_407"/>
<feColorMatrix in="SourceAlpha" type="matrix" values="0 0 0 0 0 0 0 0 0 0 0 0 0 0 0 0 0 0 127 0" result="hardAlpha"/>
<feOffset dy="16"/>
<feGaussianBlur stdDeviation="12"/>
<feComposite in2="hardAlpha" operator="out"/>
<feColorMatrix type="matrix" values="0 0 0 0 0.123854 0 0 0 0 0.24795 0 0 0 0 0.3625 0 0 0 0.25 0"/>
<feBlend mode="normal" in2="effect1_backgroundBlur_101_407" result="effect2_dropShadow_101_407"/>
<feColorMatrix in="SourceAlpha" type="matrix" values="0 0 0 0 0 0 0 0 0 0 0 0 0 0 0 0 0 0 127 0" result="hardAlpha"/>
<feOffset dy="16"/>
<feGaussianBlur stdDeviation="4"/>
<feComposite in2="hardAlpha" operator="out"/>
<feColorMatrix type="matrix" values="0 0 0 0 0.101961 0 0 0 0 0.184314 0 0 0 0 0.262745 0 0 0 0.03 0"/>
<feBlend mode="normal" in2="effect2_dropShadow_101_407" result="effect3_dropShadow_101_407"/>
<feBlend mode="normal" in="SourceGraphic" in2="effect3_dropShadow_101_407" result="shape"/>
</filter>
<radialGradient id="paint0_radial_101_407" cx="0" cy="0" r="1" gradientUnits="userSpaceOnUse" gradientTransform="translate(59.9999 89.0622) rotate(-90) scale(58.1245 173.3)">
<stop stop-color="#5200FF"/>
<stop offset="1" stop-color="#180660"/>
</radialGradient>
<clipPath id="clip0_101_407">
<rect width="120" height="120" fill="white"/>
</clipPath>
</defs>
</svg>
