<svg width="120" height="127" viewBox="0 0 120 127" fill="none" xmlns="http://www.w3.org/2000/svg">
<g filter="url(#filter0_bdd_101_639)">
<path fill-rule="evenodd" clip-rule="evenodd" d="M34.4136 34.8833C35.496 34.2579 37.1703 33.5709 39.4765 32.9303C44.6479 31.4938 52.0394 30.55 60.3784 30.55C68.7174 30.55 76.1089 31.4938 81.2804 32.9303C83.5865 33.5709 85.2609 34.2579 86.3433 34.8833C85.2609 35.5087 83.5865 36.1957 81.2804 36.8363C76.1089 38.2728 68.7174 39.2166 60.3784 39.2166C52.0394 39.2166 44.6479 38.2728 39.4765 36.8363C37.1703 36.1957 35.496 35.5087 34.4136 34.8833ZM87.4267 34.0998C87.445 34.0708 87.4576 34.0567 87.4593 34.0569C87.461 34.057 87.4519 34.0715 87.4267 34.0998ZM37.1569 24.5798C43.2777 22.8796 51.4862 21.8833 60.3784 21.8833C69.2707 21.8833 77.4792 22.8796 83.6 24.5798C86.6299 25.4214 89.3959 26.5024 91.5054 27.8878C93.4384 29.1573 95.9118 31.4298 95.9118 34.8833C95.9118 35.2723 95.8804 35.6462 95.822 36.0055C95.8808 36.2903 95.9118 36.5852 95.9118 36.8875V58.9333C95.9118 61.3265 93.9717 63.2666 91.5784 63.2666C89.1852 63.2666 87.2451 61.3265 87.2451 58.9333V43.9963C86.0958 44.4385 84.8711 44.8337 83.6 45.1868C77.4792 46.887 69.2707 47.8833 60.3784 47.8833C51.4862 47.8833 43.2777 46.887 37.1569 45.1868C35.8858 44.8337 34.661 44.4385 33.5118 43.9963V50.6692C33.7098 51.1035 34.23 51.7701 35.4324 52.5596C36.824 53.4733 38.5263 54.145 39.7962 54.5326C45.9943 56.4242 53.0566 56.7843 60.3784 56.7843C62.7717 56.7843 64.7118 58.7244 64.7118 61.1176C64.7118 63.5108 62.7717 65.4509 60.3784 65.4509C52.9396 65.4509 44.7763 65.1138 37.2664 62.8218C36.235 62.507 34.9086 62.0341 33.5118 61.378V68.2388C33.5255 68.2534 33.5405 68.2689 33.5567 68.2854C33.8407 68.5726 34.3315 68.9424 35.0595 69.3456C36.5208 70.1548 38.3304 70.7679 39.6104 71.097C45.8988 72.714 53.0437 73.0166 60.3784 73.0166C62.7717 73.0166 64.7118 74.9567 64.7118 77.3499C64.7118 79.7432 62.7717 81.6833 60.3784 81.6833C52.9525 81.6833 44.8718 81.3985 37.4522 79.4907C35.7396 79.0503 33.1762 78.2095 30.8609 76.9273C29.7006 76.2848 28.4523 75.4496 27.3933 74.3783C26.3375 73.3103 25.2739 71.8051 24.9158 69.8462C24.8162 69.3018 24.8231 68.7626 24.9216 68.25H24.8451V51.3684C24.8439 51.3104 24.844 51.2527 24.8451 51.1951V34.8833V33.8541H24.9205C25.3486 30.9726 27.5175 29.0266 29.2515 27.8878C31.361 26.5024 34.127 25.4214 37.1569 24.5798ZM77.6034 65.8842C77.6034 63.9697 79.1555 62.4176 81.0701 62.4176C82.9847 62.4176 84.5368 63.9697 84.5368 65.8842V71.0417H89.7368C91.6514 71.0417 93.2034 72.5937 93.2034 74.5083C93.2034 76.4229 91.6514 77.975 89.7368 77.975H84.5368V83.2176C84.5368 85.1322 82.9847 86.6842 81.0701 86.6842C79.1555 86.6842 77.6034 85.1322 77.6034 83.2176V77.975H72.4034C70.4889 77.975 68.9368 76.4229 68.9368 74.5083C68.9368 72.5937 70.4889 71.0417 72.4034 71.0417H77.6034V65.8842Z" fill="url(#paint0_radial_101_639)"/>
</g>
<defs>
<filter id="filter0_bdd_101_639" x="0.844238" y="13.8833" width="119.067" height="112.801" filterUnits="userSpaceOnUse" color-interpolation-filters="sRGB">
<feFlood flood-opacity="0" result="BackgroundImageFix"/>
<feGaussianBlur in="BackgroundImage" stdDeviation="4"/>
<feComposite in2="SourceAlpha" operator="in" result="effect1_backgroundBlur_101_639"/>
<feColorMatrix in="SourceAlpha" type="matrix" values="0 0 0 0 0 0 0 0 0 0 0 0 0 0 0 0 0 0 127 0" result="hardAlpha"/>
<feOffset dy="16"/>
<feGaussianBlur stdDeviation="12"/>
<feComposite in2="hardAlpha" operator="out"/>
<feColorMatrix type="matrix" values="0 0 0 0 0.123854 0 0 0 0 0.24795 0 0 0 0 0.3625 0 0 0 0.25 0"/>
<feBlend mode="normal" in2="effect1_backgroundBlur_101_639" result="effect2_dropShadow_101_639"/>
<feColorMatrix in="SourceAlpha" type="matrix" values="0 0 0 0 0 0 0 0 0 0 0 0 0 0 0 0 0 0 127 0" result="hardAlpha"/>
<feOffset dy="16"/>
<feGaussianBlur stdDeviation="4"/>
<feComposite in2="hardAlpha" operator="out"/>
<feColorMatrix type="matrix" values="0 0 0 0 0.101961 0 0 0 0 0.184314 0 0 0 0 0.262745 0 0 0 0.03 0"/>
<feBlend mode="normal" in2="effect2_dropShadow_101_639" result="effect3_dropShadow_101_639"/>
<feBlend mode="normal" in="SourceGraphic" in2="effect3_dropShadow_101_639" result="shape"/>
</filter>
<radialGradient id="paint0_radial_101_639" cx="0" cy="0" r="1" gradientUnits="userSpaceOnUse" gradientTransform="translate(60.378 86.6843) rotate(-90) scale(64.801 153.808)">
<stop stop-color="#5200FF"/>
<stop offset="1" stop-color="#180660"/>
</radialGradient>
</defs>
</svg>
