<svg width="32" height="32" viewBox="0 0 32 32" fill="none" xmlns="http://www.w3.org/2000/svg">
<path d="M16 32C24.8366 32 32 24.8366 32 16C32 7.16344 24.8366 0 16 0C7.16344 0 0 7.16344 0 16C0 24.8366 7.16344 32 16 32Z" fill="#8E99A9"/>
<path d="M23.2752 10.5438C23.2752 10.5438 21.1939 8.9126 18.7314 8.7251L18.5127 9.16885C20.7377 9.7126 21.7564 10.4938 22.8252 11.4501C20.9877 10.5126 19.1689 9.63135 16.0064 9.63135C12.8439 9.63135 11.0252 10.5126 9.18769 11.4501C10.2564 10.4938 11.4689 9.6251 13.5002 9.16885L13.2814 8.7251C10.7002 8.96885 8.73769 10.5438 8.73769 10.5438C8.73769 10.5438 6.4127 13.9188 6.0127 20.5438C8.35644 23.2501 11.9189 23.2688 11.9189 23.2688L12.6627 22.2751C11.4002 21.8376 9.96894 21.0501 8.73769 19.6313C10.2064 20.7438 12.4314 21.9063 16.0127 21.9063C19.5939 21.9063 21.8127 20.7501 23.2877 19.6313C22.0564 21.0501 20.6252 21.8376 19.3627 22.2751L20.1064 23.2688C20.1064 23.2688 23.6689 23.2501 26.0127 20.5438C25.6002 13.9188 23.2752 10.5438 23.2752 10.5438ZM13.0439 18.7251C12.1627 18.7251 11.4502 17.9126 11.4502 16.9063C11.4502 15.9001 12.1627 15.0876 13.0439 15.0876C13.9252 15.0876 14.6377 15.9001 14.6377 16.9063C14.6377 17.9126 13.9252 18.7251 13.0439 18.7251ZM18.9564 18.7251C18.0752 18.7251 17.3627 17.9126 17.3627 16.9063C17.3627 15.9001 18.0752 15.0876 18.9564 15.0876C19.8377 15.0876 20.5502 15.9001 20.5502 16.9063C20.5502 17.9126 19.8314 18.7251 18.9564 18.7251Z" fill="white"/>
</svg>
