<svg width="32" height="32" viewBox="0 0 32 32" fill="none" xmlns="http://www.w3.org/2000/svg">
<path d="M15.8696 18.9916C17.4501 18.9916 18.7313 17.7103 18.7313 16.1298C18.7313 14.5493 17.4501 13.2681 15.8696 13.2681C14.2891 13.2681 13.0078 14.5493 13.0078 16.1298C13.0078 17.7103 14.2891 18.9916 15.8696 18.9916Z" fill="#8E99A9"/>
<path d="M19.4467 9.10547H12.2923C11.2517 9.10547 10.3411 9.43067 9.75577 10.016C9.17041 10.6014 8.84521 11.5119 8.84521 12.5526V19.707C8.84521 20.7476 9.17041 21.6581 9.82081 22.3085C10.4712 22.8939 11.3167 23.2191 12.3574 23.2191H19.4467C20.4873 23.2191 21.3979 22.8939 21.9832 22.3085C22.6336 21.7232 22.9588 20.8126 22.9588 19.772V12.6176C22.9588 11.577 22.6336 10.7315 22.0483 10.0811C21.3979 9.43067 20.5524 9.10547 19.4467 9.10547ZM15.8695 20.5525C13.398 20.5525 11.4468 18.5362 11.4468 16.1298C11.4468 13.6583 13.463 11.7071 15.8695 11.7071C18.276 11.7071 20.3573 13.6583 20.3573 16.1298C20.3573 18.6013 18.341 20.5525 15.8695 20.5525ZM20.4873 12.5526C19.902 12.5526 19.4467 12.0973 19.4467 11.5119C19.4467 10.9266 19.902 10.4713 20.4873 10.4713C21.0727 10.4713 21.528 10.9266 21.528 11.5119C21.528 12.0973 21.0727 12.5526 20.4873 12.5526Z" fill="#8E99A9"/>
<path d="M15.9998 0C7.15437 0 0 7.15437 0 15.9998C0 24.8452 7.15437 31.9996 15.9998 31.9996C24.8452 31.9996 31.9996 24.8452 31.9996 15.9998C32.0646 7.15437 24.8452 0 15.9998 0ZM24.52 19.7721C24.52 21.268 23.9997 22.5688 23.0891 23.4794C22.1786 24.3899 20.8778 24.8452 19.4469 24.8452H12.3576C10.9267 24.8452 9.62589 24.3899 8.71533 23.4794C7.73973 22.5688 7.28445 21.268 7.28445 19.7721V12.6177C7.28445 9.62589 9.30069 7.54461 12.3576 7.54461H19.5119C21.0078 7.54461 22.2436 8.06493 23.1542 8.97549C24.0647 9.88604 24.52 11.1218 24.52 12.6177V19.7721Z" fill="#8E99A9"/>
</svg>
