<svg width="32" height="32" viewBox="0 0 32 32" fill="none" xmlns="http://www.w3.org/2000/svg">
<path d="M16 0C7.163 0 0 7.163 0 16C0 24.836 7.163 32 16 32C24.837 32 32 24.836 32 16C32 7.163 24.837 0 16 0Z" fill="#8E99A9"/>
<path d="M24.2938 22.9419V16.8049C24.2938 13.5169 22.5388 11.9869 20.1978 11.9869C18.3088 11.9869 17.4628 13.0259 16.9918 13.7549V12.2379H13.4338C13.4808 13.2429 13.4338 22.9419 13.4338 22.9419H16.9918V16.9639C16.9918 16.6449 17.0148 16.3249 17.1088 16.0969C17.3658 15.4579 17.9508 14.7959 18.9338 14.7959C20.2218 14.7959 20.7368 15.7769 20.7368 17.2159V22.9429L24.2938 22.9419ZM9.6848 10.7769C10.9248 10.7769 11.6978 9.95388 11.6978 8.92688C11.6748 7.87688 10.9248 7.07788 9.7078 7.07788C8.4908 7.07788 7.6958 7.87688 7.6958 8.92688C7.6958 9.95488 8.4678 10.7769 9.6628 10.7769H9.6848ZM11.4638 22.9419V12.2379H7.9068V22.9419H11.4638Z" fill="white"/>
</svg>
