<svg width="32" height="32" viewBox="0 0 32 32" fill="none" xmlns="http://www.w3.org/2000/svg">
<path fill-rule="evenodd" clip-rule="evenodd" d="M16 32C24.8366 32 32 24.8366 32 16C32 7.16344 24.8366 0 16 0C7.16344 0 0 7.16344 0 16C0 24.8366 7.16344 32 16 32Z" fill="#8E99A9"/>
<path fill-rule="evenodd" clip-rule="evenodd" d="M21.8946 9.833C21.2499 9.09993 20.3311 8.63287 19.3143 8.61595C17.3621 8.58346 15.7792 10.2331 15.7792 12.3004C15.7792 12.5938 15.8104 12.8799 15.8707 13.1546C12.9327 12.964 10.3279 11.4341 8.58437 9.12794C8.28008 9.68055 8.1057 10.3264 8.1057 11.0183C8.1057 12.3281 8.7298 13.4905 9.67835 14.1768C9.09888 14.1513 8.55379 13.9758 8.07718 13.6881C8.07684 13.7038 8.07684 13.7195 8.07684 13.7355C8.07684 15.5647 9.2954 17.0991 10.9126 17.4566C10.616 17.5406 10.3037 17.5846 9.98127 17.5825C9.75348 17.581 9.53198 17.5557 9.31616 17.5104C9.76597 19.0104 11.0715 20.105 12.6184 20.1412C11.4086 21.1455 9.88435 21.7437 8.22804 21.7402C7.9427 21.7397 7.66132 21.7212 7.38477 21.6857C8.94923 22.7592 10.8074 23.3842 12.8038 23.3847C19.306 23.3864 22.8619 17.7278 22.8619 12.8197C22.8619 12.6587 22.8583 12.4985 22.8516 12.3391C23.5423 11.8244 24.1416 11.1792 24.6155 10.4423C23.9816 10.7281 23.3002 10.9179 22.5852 10.9975C23.315 10.5483 23.8756 9.82948 24.1395 8.96743C23.4564 9.38169 22.6999 9.67877 21.8946 9.833Z" fill="white"/>
</svg>
