<svg width="187" height="20" viewBox="0 0 187 20" fill="none" xmlns="http://www.w3.org/2000/svg">
<path fill-rule="evenodd" clip-rule="evenodd" d="M46.0604 10.1513C46.0604 11.4902 44.975 12.5755 43.6362 12.5755C42.2973 12.5755 41.2119 11.4902 41.2119 10.1513C41.2119 8.81242 42.2973 7.72705 43.6362 7.72705C44.975 7.72705 46.0604 8.81242 46.0604 10.1513ZM94.0149 10.1513C94.0149 11.4902 92.9296 12.5755 91.5907 12.5755C90.2518 12.5755 89.1665 11.4902 89.1665 10.1513C89.1665 8.81242 90.2518 7.72705 91.5907 7.72705C92.9296 7.72705 94.0149 8.81242 94.0149 10.1513ZM141.591 12.5755C142.93 12.5755 144.015 11.4902 144.015 10.1513C144.015 8.81242 142.93 7.72705 141.591 7.72705C140.252 7.72705 139.166 8.81242 139.166 10.1513C139.166 11.4902 140.252 12.5755 141.591 12.5755Z" fill="#00D4FF"/>
<path fill-rule="evenodd" clip-rule="evenodd" d="M7.87879 0C3.52745 0 0 3.52745 0 7.87879V20H3.63636V7.87879C3.63636 5.53576 5.53576 3.63636 7.87879 3.63636C10.2218 3.63636 12.1212 5.53576 12.1212 7.87879V20H15.7576V7.87879C15.7576 5.53576 17.657 3.63636 20 3.63636C22.343 3.63636 24.2424 5.53576 24.2424 7.87879V20H27.8788V7.87879C27.8788 3.52745 24.3513 0 20 0C17.5631 0 15.3846 1.10634 13.9394 2.84415C12.4942 1.10634 10.3157 0 7.87879 0ZM80.6818 10.9091C80.6818 4.88417 85.566 0 91.5909 0C97.6158 0 102.5 4.88417 102.5 10.9091V20H98.8636V10.9091C98.8636 6.89247 95.6075 3.63636 91.5909 3.63636C87.5743 3.63636 84.3182 6.89247 84.3182 10.9091V20H80.6818V10.9091ZM141.591 0C135.566 0 130.682 4.88417 130.682 10.9091V20H134.318V10.9091C134.318 6.89247 137.574 3.63636 141.591 3.63636C145.608 3.63636 148.864 6.89247 148.864 10.9091V20H152.5V10.9091C152.5 4.88417 147.616 0 141.591 0ZM33.1061 10.1515C33.1061 4.71235 37.5154 0.30303 42.9545 0.30303H52.0555V3.93939H42.9545C39.5237 3.93939 36.7424 6.72066 36.7424 10.1515C36.7424 13.5824 39.5237 16.3636 42.9545 16.3636H52.0555V20H42.9545C37.5154 20 33.1061 15.5907 33.1061 10.1515ZM65.6061 3.93939V20H69.2424V3.93939H76.5152V0.30303L58.3333 0.30303V3.93939L65.6061 3.93939ZM183.258 0.30303L186.894 0.30303V20H183.258V0.30303ZM118.485 10.9059C120.663 10.5323 122.69 9.49344 124.273 7.90978C124.906 7.27759 125.451 6.57468 125.902 5.81969L124.471 4.96504L125.902 5.81969C126.89 4.16589 127.424 2.26203 127.424 0.30303H124.091C124.091 1.65491 123.722 2.96882 123.04 4.11038C122.729 4.63132 122.353 5.11635 121.916 5.55276C120.524 6.94508 118.636 7.72727 116.667 7.72727C114.698 7.72727 112.809 6.94508 111.417 5.55276C110.981 5.11635 110.604 4.63133 110.293 4.11038C109.611 2.96882 109.242 1.65491 109.242 0.303032L105.909 0.303032C105.909 2.26203 106.443 4.16589 107.431 5.8197C107.882 6.57468 108.428 7.27759 109.06 7.90979C110.644 9.49344 112.67 10.5323 114.848 10.9059V20H118.485V10.9059ZM157.576 6.13636C157.576 2.9147 160.187 0.30303 163.409 0.30303H175.303V3.93939H163.409C162.196 3.93939 161.212 4.92301 161.212 6.13636C161.212 7.34972 162.196 8.33333 163.409 8.33333H165.232H170.632H171.288C174.51 8.33333 177.121 10.945 177.121 14.1667C177.121 17.3883 174.51 20 171.288 20H159.394V16.3636H171.288C172.501 16.3636 173.485 15.38 173.485 14.1667C173.485 12.9533 172.501 11.9697 171.288 11.9697H170.632H165.232H163.409C160.187 11.9697 157.576 9.35802 157.576 6.13636Z" fill="url(#paint0_linear_4_129)"/>
<defs>
<linearGradient id="paint0_linear_4_129" x1="93.447" y1="0" x2="93.447" y2="20" gradientUnits="userSpaceOnUse">
<stop stop-color="white"/>
<stop offset="1" stop-color="#ECF6F8" stop-opacity="0.85"/>
</linearGradient>
</defs>
</svg>
